<svg width="80" height="23" viewBox="0 0 80 23" fill="none" xmlns="http://www.w3.org/2000/svg">
  <path d="M11.7328 19.4902C10.8648 19.4902 10.3366 20.0744 10.3366 20.9675C10.3308 21.1593 10.3641 21.3502 10.4341 21.5279C10.5041 21.7055 10.6093 21.8659 10.7429 21.9986C10.8766 22.1313 11.0356 22.2334 11.2098 22.2982C11.3839 22.363 11.5692 22.3891 11.7537 22.3748C12.8171 22.3748 13.1499 21.5106 13.1499 20.9265C13.1289 20.1371 12.7636 19.4902 11.7328 19.4902Z" fill="#E50040"/>
  <path d="M23.101 2.25539C20.1388 2.25539 19.1801 3.83163 18.8473 4.49785C18.7054 4.78269 18.945 4.71993 19.0195 4.67889C20.183 4.08267 21.0626 3.7737 22.2377 3.7737C25.0301 3.7737 26.9964 6.7717 26.9964 11.7177C26.9964 16.0867 25.1348 21.1582 21.1789 21.1582C17.5907 21.1582 15.557 16.613 15.557 12.1449C15.557 9.26279 16.0224 6.71377 17.1859 4.66199C17.9188 3.35128 18.7938 2.37367 20.29 1.69055C20.6926 1.50227 21.763 1.1764 23.2802 1.25847C23.4873 1.25847 23.7177 0.990532 23.7898 0.910875C23.8834 0.803849 23.9675 0.688325 24.0411 0.565695C24.0411 0.565695 24.1388 0.406381 24.0085 0.35569C23.3115 0.108633 22.5786 -0.0114176 21.8421 0.000854098C15.052 0.000854098 12.5156 7.02515 12.5156 11.9542C12.5156 17.1875 15.3266 23 20.9439 23C25.9376 23 29.57 17.4844 29.57 11.7008C29.5723 7.78069 28.1831 2.25539 23.101 2.25539Z" fill="#E50040"/>
  <path d="M79.8447 9.27981C79.7312 9.24739 79.6152 9.22478 79.498 9.21222C75.7004 8.79945 73.7062 13.8372 73.6806 13.8806L73.6969 13.5692C73.6713 13.2385 73.8481 10.6557 73.7178 9.62016C73.6992 9.48015 73.6061 8.96601 73.1966 9.12291C72.4799 9.4005 71.1977 10.1657 71.1954 10.6581C71.1954 11.0395 71.221 11.8337 71.2256 12.1547C71.2373 13.6537 71.1768 14.4406 71.1768 14.4406C71.1563 14.8643 71.0641 15.281 70.9045 15.6717C70.5994 16.4724 70.1763 17.2191 69.6503 17.8852C68.1471 19.6811 67.0301 20.089 65.8457 20.089C63.6746 20.089 63.0161 17.8707 62.8206 16.9341C62.795 16.8158 62.8672 16.8134 62.944 16.811C66.218 16.6976 68.7079 14.9403 68.7079 12.2513C68.7079 10.745 67.8213 9.00946 65.4245 9.00946C62.083 9.00946 60.503 12.3116 60.2703 15.2082C60.2709 15.2187 60.2709 15.2291 60.2703 15.2396C59.5084 14.9825 58.7985 14.5824 58.176 14.0592C58.1337 14.017 58.1029 13.964 58.0865 13.9056C58.0702 13.8471 58.069 13.7852 58.0829 13.7261C58.1411 13.2313 58.3901 10.5422 58.1527 9.34015C58.1432 9.19097 58.0786 9.05133 57.9725 8.9502C57.8663 8.84908 57.7267 8.79423 57.5826 8.79704C57.1987 8.79704 56.5262 9.25325 56.1283 9.54774C55.3697 10.1126 55.116 10.7088 55.1486 11.2809C55.1966 12.4381 55.5911 13.551 56.2772 14.4648C56.3374 14.5356 56.3749 14.6242 56.3842 14.7182C56.3019 15.0571 56.2009 15.3907 56.0817 15.7175C55.6489 17.1876 54.7879 19.7945 53.6454 19.7945C53.1288 19.7945 50.9926 17.7428 51.2789 10.4481C51.2789 10.1657 51.3091 9.89534 51.3161 9.64913C51.3231 9.40291 51.2277 9.23877 51.0531 9.24843C50.9879 9.24984 50.9237 9.26546 50.8647 9.29429C50.4435 9.48257 49.2358 10.2598 48.8355 10.5398C48.7921 10.5658 48.754 10.6006 48.7236 10.642C48.6933 10.6835 48.6712 10.7308 48.6587 10.7812C48.6263 10.9398 48.6161 11.1024 48.6284 11.264C48.6284 12.2802 48.7843 15.3941 48.7843 15.3941C48.6052 17.6245 46.8181 19.739 45.8058 20.0625C44.7261 20.4125 44.54 19.1621 44.4934 18.9183C44.3836 18.2113 44.333 17.4957 44.3422 16.7796C44.3212 15.7562 44.3654 14.8486 44.3701 13.8154C44.3701 13.4075 44.5306 10.5929 44.4608 9.90258C44.4638 9.83819 44.4535 9.77389 44.4306 9.71395C44.4078 9.65402 44.3728 9.59983 44.3282 9.55499C44.2712 9.51844 44.2055 9.49909 44.1386 9.49909C44.0716 9.49909 44.0059 9.51844 43.9489 9.55499C43.2765 9.90115 42.6218 10.283 41.9873 10.6991C41.9183 10.7523 41.8627 10.822 41.8254 10.9023C41.7881 10.9826 41.7702 11.0711 41.7732 11.1602C41.7732 11.9664 41.7732 12.7292 41.7732 13.5089C41.7732 15.6813 41.6196 16.1038 41.6196 16.1038C41.0821 18.1217 38.8877 20.1832 37.5102 20.2073C35.8929 20.229 35.3228 18.0831 35.0273 16.9438C35.0273 16.9438 35.0436 16.9172 35.0762 16.8883C36.5352 15.5341 39.6743 12.7944 39.772 6.6125C39.8046 4.52211 39.4253 1.3479 36.5794 1.3479C33.0028 1.3479 31.8789 6.65837 31.8789 11.614C31.8839 13.2464 32.0185 14.8757 32.2815 16.4851C32.2815 16.502 32.2815 16.5358 32.2931 16.5769C31.6052 17.1121 30.8486 17.5452 30.0453 17.8635C29.9864 17.8884 29.9296 17.9182 29.8754 17.9528C29.8292 17.9803 29.7882 18.0163 29.7544 18.059C29.7027 18.1331 29.6612 18.2143 29.6311 18.3004C29.6171 18.3414 29.3425 19.068 29.1913 19.4397C29.1913 19.4397 29.1354 19.5652 29.161 19.6256C29.1866 19.6859 29.2192 19.6931 29.3053 19.6931C29.3571 19.6885 29.4084 19.6797 29.4589 19.6666C30.5663 19.3289 31.6228 18.8325 32.5979 18.1917C32.8306 18.9569 33.9034 22.2591 36.5864 22.2591C38.9738 22.2591 41.3218 19.7535 41.8593 18.7445C41.9873 19.9876 42.6761 22.2373 44.6214 22.2373C45.7849 22.2373 47.6465 21.1946 49.4429 18.1338C49.4662 18.0952 49.4731 18.0831 49.4755 18.0904C49.7524 18.8145 50.9531 22.1939 53.0636 22.1939C55.8793 22.1939 57.4988 16.0869 57.6292 15.6765C58.4299 16.1644 59.3088 16.4988 60.2237 16.6638C60.2377 16.7072 60.4122 21.9042 65.0848 22.0563C69.2058 22.1915 71.2559 17.9817 71.2559 17.9817C71.2559 18.8966 71.2559 20.9411 71.2559 21.0256C71.2675 21.3515 71.2559 21.6242 71.57 21.7666C71.8694 21.871 72.1858 21.9128 72.5008 21.8897C72.8291 21.8936 73.1565 21.8555 73.4758 21.7763C73.7085 21.6822 73.7225 21.4504 73.7411 21.1632C73.7411 21.0377 73.7411 18.6745 73.7411 18.5224C73.7297 17.9901 73.7561 17.4576 73.8202 16.9293C73.9366 16.0362 74.4508 11.9906 78.174 11.8385C78.234 11.8362 78.2938 11.8306 78.3532 11.8216C78.4207 11.813 78.4845 11.7845 78.537 11.7395C78.5889 11.6918 78.6357 11.6383 78.6766 11.5802C78.9489 11.2036 79.4445 10.5036 79.7563 10.045C79.8843 9.88697 79.9688 9.69597 80.0007 9.49222C79.9977 9.44483 79.9813 9.39941 79.9536 9.36162C79.9259 9.32384 79.888 9.29538 79.8447 9.27981ZM34.534 10.8102C34.534 8.44944 34.8691 3.19932 36.6701 3.19932C37.7499 3.19932 37.957 4.79729 37.957 6.65354C37.957 9.75775 36.8842 12.9633 34.7876 14.9017C34.6073 13.546 34.5225 12.1786 34.534 10.8102ZM62.6624 15.3362C62.702 13.7865 63.2418 10.8947 65.3803 10.8947C66.4623 10.8947 66.9487 11.7081 66.8858 12.7026C66.816 13.8275 65.7619 15.3024 62.802 15.452C62.7183 15.4496 62.6601 15.4496 62.6624 15.3362Z" fill="#E50040"/>
  <path d="M43.4574 7.93046C43.8304 7.94156 44.1924 7.7994 44.4648 7.53493C44.7372 7.27047 44.8978 6.9051 44.9118 6.51836C44.8862 6.13537 44.7215 5.7767 44.4509 5.51477C44.1803 5.25285 43.824 5.10718 43.4539 5.10718C43.0838 5.10718 42.7275 5.25285 42.4569 5.51477C42.1864 5.7767 42.0217 6.13537 41.9961 6.51836C42.01 6.9064 42.1717 7.27288 42.4456 7.53755C42.7195 7.80222 43.0833 7.94351 43.4574 7.93046Z" fill="#E50040"/>
  <path d="M8.70357 10.139C8.53984 10.0276 8.36965 9.92684 8.19397 9.83722C7.59446 9.53169 6.95455 9.32019 6.29516 9.20962C5.80322 9.13202 5.30439 9.11258 4.80823 9.15169C1.81342 9.4148 0.521947 11.259 0.521947 13.1587C0.496606 13.8832 0.734077 14.5912 1.18746 15.1429C1.52289 15.5039 1.91666 15.8013 2.35095 16.0215C3.04904 16.3908 3.97982 16.8205 4.91061 17.3636C5.3556 17.6024 5.7635 17.9091 6.12064 18.2736C6.24507 18.421 6.33835 18.5938 6.39446 18.7809C6.45057 18.968 6.46827 19.1652 6.44641 19.3599C6.38126 20.1685 5.58543 20.7599 4.55459 20.7599C3.81461 20.7599 2.77911 20.4992 1.32941 19.693C1.29259 19.6742 1.25165 19.6659 1.21073 19.6688C1.16888 19.6722 1.12868 19.6872 1.09438 19.7123C0.765029 19.9537 0.453867 20.2208 0.163593 20.5113C0.0794149 20.592 0.0223394 20.6986 0.0007052 20.8154C-0.0132566 20.9892 0.184536 21.134 0.200825 21.1461C0.486396 21.3487 0.792228 21.5186 1.113 21.653C2.0602 22.0369 3.06547 22.2436 4.08221 22.2637C5.39928 22.2637 6.37195 21.9934 7.22595 21.344C8.29403 20.533 8.84319 19.3381 8.84319 18.346C8.83819 17.6492 8.61799 16.9724 8.21491 16.415C7.51682 15.4277 6.02988 14.8001 4.95715 14.3053C4.52985 14.1031 4.11762 13.8683 3.72386 13.6028C3.49906 13.44 3.32205 13.2158 3.2124 12.9551C3.10276 12.6944 3.06474 12.4073 3.10256 12.1255C3.17469 11.58 3.59122 10.7328 5.14796 10.7328C5.81626 10.7492 6.46897 10.9455 7.04212 11.3024L7.34462 11.5028C7.38969 11.5344 7.44028 11.5565 7.49355 11.5679C7.54452 11.5696 7.5948 11.5553 7.63782 11.5269C8.03863 11.2181 8.4124 10.8732 8.75477 10.4962C8.78907 10.4618 8.8188 10.4229 8.84319 10.3803C8.853 10.3649 8.85823 10.3469 8.85823 10.3284C8.85823 10.31 8.853 10.2919 8.84319 10.2765C8.80418 10.2231 8.75702 10.1766 8.70357 10.139Z" fill="#E50040"/>
</svg>
